SplineFontDB: 3.0
FontName: Untitled1
FullName: Untitled1
FamilyName: Untitled1
Weight: Regular
Copyright: Copyright (c) 2015, Leo
UComments: "2015-10-15: Created with FontForge (http://fontforge.org)"
Version: 001.000
ItalicAngle: 0
UnderlinePosition: -100
UnderlineWidth: 50
Ascent: 800
Descent: 200
InvalidEm: 0
LayerCount: 3
Layer: 0 0 "Back" 1
Layer: 1 0 "Fore" 0
Layer: 2 0 "Back 2" 1
XUID: [1021 575 767082282 23126]
OS2Version: 0
OS2_WeightWidthSlopeOnly: 0
OS2_UseTypoMetrics: 1
CreationTime: 1444941292
ModificationTime: 1444944729
OS2TypoAscent: 0
OS2TypoAOffset: 1
OS2TypoDescent: 0
OS2TypoDOffset: 1
OS2TypoLinegap: 0
OS2WinAscent: 0
OS2WinAOffset: 1
OS2WinDescent: 0
OS2WinDOffset: 1
HheadAscent: 0
HheadAOffset: 1
HheadDescent: 0
HheadDOffset: 1
OS2Vendor: 'PfEd'
DEI: 91125
Encoding: ISO8859-1
UnicodeInterp: none
NameList: AGL For New Fonts
DisplaySize: -48
AntiAlias: 1
FitToEm: 0
WinInfo: 0 27 9
BeginChars: 256 62

StartChar: zero
Encoding: 48 48 0
Width: 1012
VWidth: 0
Flags: H
LayerCount: 3
Fore
SplineSet
513 453 m 28
 458 448 410 412 408 357 c 24
 406 312 462 296 507 300 c 24
 550 304 586 332 588 375 c 24
 590 417 555 457 513 453 c 28
EndSplineSet
EndChar

StartChar: A
Encoding: 65 65 1
Width: 1000
VWidth: 0
Flags: H
LayerCount: 3
Fore
SplineSet
835 693 m 30
 688 582 l 30
 854 665 l 30
 835 693 l 30
778 399 m 23
 778 470.955386565 747.776929954 531.74556254 700.000003132 577.316379678 c 6
 638.884234454 635.610114834 549.044613435 669 457 669 c 15
 320 669 232 536 232 399 c 31
 232 287 321 195 433 195 c 31
 589 195 778 243 778 399 c 23
EndSplineSet
EndChar

StartChar: a
Encoding: 97 97 2
Width: 1000
VWidth: 0
Flags: HW
LayerCount: 3
Fore
SplineSet
835 693 m 30
 688 582 l 26
 854 665 l 26
 835 693 l 30
778 399 m 19
 778 470.955386565 747.776929954 531.74556254 700.000003132 577.316379678 c 2
 638.884234454 635.610114834 549.044613435 669 457 669 c 11
 320 669 232 536 232 399 c 27
 232 287 321 195 433 195 c 27
 589 195 778 243 778 399 c 19
EndSplineSet
EndChar

StartChar: B
Encoding: 66 66 3
Width: 1000
VWidth: 0
Flags: H
LayerCount: 3
Fore
SplineSet
577 400 m 1055
559 410 m 25
 567 410 572 410 580 410 c 27
 637 410 673 355 673 298 c 27
 673 201 791 50 694 50 c 27
 580 50 403 -56 403 58 c 27
 403 179 430 247 430 368 c 27
 430 421 509 394 559 410 c 25
838 730 m 25
 571 404 l 25
 676 310 l 25
 949 670 l 25
 838 730 l 25
40 692 m 25
 157 764 l 25
 445 598 l 25
 562 400 l 25
 427 374 l 25
 346 526 l 25
 40 692 l 25
EndSplineSet
EndChar

StartChar: b
Encoding: 98 98 4
Width: 1000
VWidth: 0
Flags: HW
LayerCount: 3
Fore
SplineSet
577 400 m 1055
559 410 m 25
 567 410 572 410 580 410 c 27
 637 410 673 355 673 298 c 27
 673 201 791 50 694 50 c 27
 580 50 403 -56 403 58 c 27
 403 179 430 247 430 368 c 27
 430 421 509 394 559 410 c 25
838 730 m 25
 571 404 l 25
 676 310 l 25
 949 670 l 25
 838 730 l 25
40 692 m 25
 157 764 l 25
 445 598 l 25
 562 400 l 25
 427 374 l 25
 346 526 l 25
 40 692 l 25
EndSplineSet
EndChar

StartChar: C
Encoding: 67 67 5
Width: 1000
VWidth: 0
Flags: H
LayerCount: 3
Fore
SplineSet
166 222 m 3
 353 222 646 38 646 225 c 27
 646 373 430 389 430 537 c 27
 430 675 610 690 748 690 c 3
 795 690 519 608 517 561 c 24
 511 445 730 468 730 351 c 3
 730 271 744 87 664 87 c 3
 531 87 554 69 421 69 c 3
 318 69 63 222 166 222 c 3
EndSplineSet
EndChar

StartChar: c
Encoding: 99 99 6
Width: 1000
VWidth: 0
Flags: HW
LayerCount: 3
Fore
SplineSet
166 222 m 3
 353 222 646 38 646 225 c 27
 646 373 430 389 430 537 c 27
 430 675 610 690 748 690 c 3
 795 690 519 608 517 561 c 24
 511 445 730 468 730 351 c 3
 730 271 744 87 664 87 c 3
 531 87 554 69 421 69 c 3
 318 69 63 222 166 222 c 3
EndSplineSet
EndChar

StartChar: D
Encoding: 68 68 7
Width: 1000
VWidth: 0
Flags: H
LayerCount: 3
Fore
SplineSet
609 609 m 3
 609 660 669 726 669 726 c 2
 669 726 789.234375 158.668945312 775 156 c 2
 647 132 l 2
 647 132 609 463 609 609 c 3
347 613 m 3
 347 664 407 730 407 730 c 2
 407 730 527.234375 162.668945312 513 160 c 2
 385 136 l 2
 385 136 347 467 347 613 c 3
121 633 m 3
 121 684 181 750 181 750 c 2
 181 750 301.234555084 182.668979078 287 180 c 2
 159 156 l 2
 159 156 121 487 121 633 c 3
EndSplineSet
EndChar

StartChar: d
Encoding: 100 100 8
Width: 1000
VWidth: 0
Flags: HW
LayerCount: 3
Fore
SplineSet
609 609 m 3
 609 660 669 726 669 726 c 2
 669 726 789.234375 158.668945312 775 156 c 2
 647 132 l 2
 647 132 609 463 609 609 c 3
347 613 m 3
 347 664 407 730 407 730 c 2
 407 730 527.234375 162.668945312 513 160 c 2
 385 136 l 2
 385 136 347 467 347 613 c 3
121 633 m 3
 121 684 181 750 181 750 c 2
 181 750 301.234555084 182.668979078 287 180 c 2
 159 156 l 2
 159 156 121 487 121 633 c 3
EndSplineSet
EndChar

StartChar: E
Encoding: 69 69 9
Width: 1000
VWidth: 0
Flags: H
LayerCount: 3
Fore
SplineSet
889 243 m 31
 889 372 925 561 796 561 c 27
 642 561 581 702 427 702 c 27
 307 702 148 693 148 573 c 27
 148 477 259 450 259 354 c 27
 259 259 332 177 427 177 c 27
 541 177 604 195 718 195 c 27
 787 195 889 174 889 243 c 31
EndSplineSet
EndChar

StartChar: e
Encoding: 101 101 10
Width: 1000
VWidth: 0
Flags: HW
LayerCount: 3
Fore
SplineSet
889 243 m 31
 889 372 925 561 796 561 c 27
 642 561 581 702 427 702 c 27
 307 702 148 693 148 573 c 27
 148 477 259 450 259 354 c 27
 259 259 332 177 427 177 c 27
 541 177 604 195 718 195 c 27
 787 195 889 174 889 243 c 31
EndSplineSet
EndChar

StartChar: F
Encoding: 70 70 11
Width: 1000
VWidth: 0
Flags: H
LayerCount: 3
Fore
SplineSet
148 741 m 30
 223 561 l 26
 103 477 l 26
 202 336 l 26
 349 414 l 26
 256 135 l 26
 538 102 l 26
 589 342 l 26
 835 228 l 26
 940 135 l 26
 961 204 l 26
 871 276 l 26
 655 381 l 26
 859 426 l 26
 820 570 l 26
 613 555 l 26
 670 735 l 26
 469 768 l 26
 361 663 l 26
 148 741 l 30
EndSplineSet
EndChar

StartChar: f
Encoding: 102 102 12
Width: 1000
VWidth: 0
Flags: HW
LayerCount: 3
Fore
SplineSet
148 741 m 30
 223 561 l 26
 103 477 l 26
 202 336 l 26
 349 414 l 26
 256 135 l 26
 538 102 l 26
 589 342 l 26
 835 228 l 26
 940 135 l 26
 961 204 l 26
 871 276 l 26
 655 381 l 26
 859 426 l 26
 820 570 l 26
 613 555 l 26
 670 735 l 26
 469 768 l 26
 361 663 l 26
 148 741 l 30
EndSplineSet
EndChar

StartChar: G
Encoding: 71 71 13
Width: 1000
VWidth: 0
Flags: H
LayerCount: 3
Fore
SplineSet
511.7578125 704.734375 m 30
 727.748046875 254.134765625 l 30
 767.576171875 170.690429688 641.96484375 123.19140625 548.522460938 80.8271484375 c 28
 478.056640625 48.7333984375 413.719726562 46.166015625 341.721679688 76.9765625 c 28
 255.938476562 112.921875 94.15234375 203.623046875 183 237 c 28
 386.735351562 314.026367188 754.380859375 234.432617188 754.380859375 234.432617188 c 28
 754.380859375 234.432617188 67.5205078125 74.408203125 180.877929688 234.877929688 c 30
 511.7578125 704.734375 l 30
502.565429688 716.287109375 m 30
 176.282226562 242.58203125 l 30
 502.565429688 716.287109375 l 30
EndSplineSet
EndChar

StartChar: g
Encoding: 103 103 14
Width: 1000
VWidth: 0
Flags: HW
LayerCount: 3
Fore
SplineSet
511.7578125 704.734375 m 30
 727.748046875 254.134765625 l 30
 767.576171875 170.690429688 641.96484375 123.19140625 548.522460938 80.8271484375 c 28
 478.056640625 48.7333984375 413.719726562 46.166015625 341.721679688 76.9765625 c 28
 255.938476562 112.921875 94.15234375 203.623046875 183 237 c 28
 386.735351562 314.026367188 754.380859375 234.432617188 754.380859375 234.432617188 c 28
 754.380859375 234.432617188 67.5205078125 74.408203125 180.877929688 234.877929688 c 30
 511.7578125 704.734375 l 30
502.565429688 716.287109375 m 30
 176.282226562 242.58203125 l 30
 502.565429688 716.287109375 l 30
EndSplineSet
EndChar

StartChar: H
Encoding: 72 72 15
Width: 1000
VWidth: 0
Flags: H
LayerCount: 3
Fore
SplineSet
202 681 m 30
 316 198 l 26
 781 207 l 26
 862 708 l 26
 202 681 l 30
EndSplineSet
EndChar

StartChar: h
Encoding: 104 104 16
Width: 1000
VWidth: 0
Flags: HW
LayerCount: 3
Fore
SplineSet
202 681 m 30
 316 198 l 26
 781 207 l 26
 862 708 l 26
 202 681 l 30
EndSplineSet
EndChar

StartChar: I
Encoding: 73 73 17
Width: 1000
VWidth: 0
Flags: H
LayerCount: 3
Fore
SplineSet
550 612 m 28
 334 607 77 506 100 291 c 24
 124 73 391 52 610 57 c 24
 776 61 970 147 952 312 c 24
 931 506 746 617 550 612 c 28
832 765 m 24
 746 814 738 619 760 522 c 24
 775 458 888 375 907 438 c 24
 944 563 946 700 832 765 c 24
487 561 m 24
 446 643 459 783 550 786 c 24
 646 789 687 659 661 567 c 24
 643 502 518 500 487 561 c 24
376 567 m 24
 383 668 277 756 178 735 c 24
 97 718 100 576 163 522 c 24
 228 467 370 482 376 567 c 24
EndSplineSet
EndChar

StartChar: i
Encoding: 105 105 18
Width: 1000
VWidth: 0
Flags: HW
LayerCount: 3
Fore
SplineSet
550 612 m 28
 334 607 77 506 100 291 c 24
 124 73 391 52 610 57 c 24
 776 61 970 147 952 312 c 24
 931 506 746 617 550 612 c 28
832 765 m 24
 746 814 738 619 760 522 c 24
 775 458 888 375 907 438 c 24
 944 563 946 700 832 765 c 24
487 561 m 24
 446 643 459 783 550 786 c 24
 646 789 687 659 661 567 c 24
 643 502 518 500 487 561 c 24
376 567 m 24
 383 668 277 756 178 735 c 24
 97 718 100 576 163 522 c 24
 228 467 370 482 376 567 c 24
EndSplineSet
EndChar

StartChar: J
Encoding: 74 74 19
Width: 1000
VWidth: 0
Flags: H
LayerCount: 3
Fore
SplineSet
94 162 m 26
 31 84 l 2
 115 24 l 30
 187 78 l 2
 94 162 l 26
895 165 m 26
 826 84 l 26
 937 24 l 26
 973 90 l 26
 895 165 l 26
883 771 m 26
 811 705 l 26
 907 609 l 26
 961 714 l 26
 883 771 l 26
34 717 m 26
 127 636 l 26
 223 699 l 26
 112 756 l 26
 34 717 l 26
532 723 m 24
 328 729 124 594 130 390 c 24
 136 189 349 99 550 93 c 24
 715 88 876 204 871 369 c 24
 866 560 723 718 532 723 c 24
EndSplineSet
EndChar

StartChar: j
Encoding: 106 106 20
Width: 1000
VWidth: 0
Flags: HW
LayerCount: 3
Fore
SplineSet
94 162 m 26
 31 84 l 2
 115 24 l 30
 187 78 l 2
 94 162 l 26
895 165 m 26
 826 84 l 26
 937 24 l 26
 973 90 l 26
 895 165 l 26
883 771 m 26
 811 705 l 26
 907 609 l 26
 961 714 l 26
 883 771 l 26
34 717 m 26
 127 636 l 26
 223 699 l 26
 112 756 l 26
 34 717 l 26
532 723 m 24
 328 729 124 594 130 390 c 24
 136 189 349 99 550 93 c 24
 715 88 876 204 871 369 c 24
 866 560 723 718 532 723 c 24
EndSplineSet
EndChar

StartChar: K
Encoding: 75 75 21
Width: 1000
VWidth: 0
Flags: H
LayerCount: 3
Fore
SplineSet
304 597 m 29
 124 498 l 25
 163 465 l 25
 325 534 l 25
 304 597 l 29
394 441 m 25
 184 360 l 25
 238 315 l 25
 466 384 l 25
 394 441 l 25
517 273 m 25
 295 186 l 25
 313 150 l 25
 547 243 l 25
 517 273 l 25
883 294 m 26
 205 753 l 26
 454 132 l 26
 883 294 l 26
EndSplineSet
EndChar

StartChar: k
Encoding: 107 107 22
Width: 1000
VWidth: 0
Flags: HW
LayerCount: 3
Fore
SplineSet
304 597 m 29
 124 498 l 25
 163 465 l 25
 325 534 l 25
 304 597 l 29
394 441 m 25
 184 360 l 25
 238 315 l 25
 466 384 l 25
 394 441 l 25
517 273 m 25
 295 186 l 25
 313 150 l 25
 547 243 l 25
 517 273 l 25
883 294 m 26
 205 753 l 26
 454 132 l 26
 883 294 l 26
EndSplineSet
EndChar

StartChar: L
Encoding: 76 76 23
Width: 1000
VWidth: 0
Flags: H
LayerCount: 3
Fore
SplineSet
415 408 m 31
 282 408 94 424 94 291 c 27
 94 177 226 135 340 135 c 27
 482 135 561 144 703 144 c 27
 764 144 787 215 787 276 c 27
 787 352 716 405 640 405 c 27
 574 405 559 321 493 321 c 27
 447 321 461 408 415 408 c 31
457 759 m 27
 321 759 254 681 118 681 c 27
 49 681 157 540 226 540 c 27
 316 540 367 519 457 519 c 27
 618 519 862 439 862 600 c 27
 862 770 627 759 457 759 c 27
EndSplineSet
EndChar

StartChar: l
Encoding: 108 108 24
Width: 1000
VWidth: 0
Flags: HW
LayerCount: 3
Fore
SplineSet
415 408 m 31
 282 408 94 424 94 291 c 27
 94 177 226 135 340 135 c 27
 482 135 561 144 703 144 c 27
 764 144 787 215 787 276 c 27
 787 352 716 405 640 405 c 27
 574 405 559 321 493 321 c 27
 447 321 461 408 415 408 c 31
457 759 m 27
 321 759 254 681 118 681 c 27
 49 681 157 540 226 540 c 27
 316 540 367 519 457 519 c 27
 618 519 862 439 862 600 c 27
 862 770 627 759 457 759 c 27
EndSplineSet
EndChar

StartChar: M
Encoding: 77 77 25
Width: 1000
VWidth: 0
Flags: H
LayerCount: 3
Fore
SplineSet
562 282 m 1
 451 249 l 1
 568 51 l 1
 658 96 l 1
 562 282 l 1
562 282 m 27
 674 282 787 347 787 459 c 3
 787 539 837 663 757 663 c 27
 662 663 618 594 523 594 c 27
 378 594 317 720 172 720 c 27
 54 720 208 538 208 420 c 3
 208 339 25 210 106 210 c 19
 386.283898463 210 370.742022166 249 451 249 c 3
 496 249 517 282 562 282 c 27
EndSplineSet
EndChar

StartChar: m
Encoding: 109 109 26
Width: 1000
VWidth: 0
Flags: HW
LayerCount: 3
Fore
SplineSet
562 282 m 1
 451 249 l 1
 568 51 l 1
 658 96 l 1
 562 282 l 1
562 282 m 27
 674 282 787 347 787 459 c 3
 787 539 837 663 757 663 c 27
 662 663 618 594 523 594 c 27
 378 594 317 720 172 720 c 27
 54 720 208 538 208 420 c 3
 208 339 25 210 106 210 c 19
 386.283898463 210 370.742022166 249 451 249 c 3
 496 249 517 282 562 282 c 27
EndSplineSet
EndChar

StartChar: N
Encoding: 78 78 27
Width: 1000
VWidth: 0
Flags: H
LayerCount: 3
Fore
SplineSet
706 624 m 28
 557 770 391 754 184 729 c 24
 117 721 93 594 151 558 c 24
 296 466 447 580 583 477 c 24
 680 403 592 276 658 174 c 24
 699 111 824 18 832 93 c 24
 855 305 858 475 706 624 c 28
EndSplineSet
EndChar

StartChar: n
Encoding: 110 110 28
Width: 1000
VWidth: 0
Flags: HW
LayerCount: 3
Fore
SplineSet
706 624 m 28
 557 770 391 754 184 729 c 24
 117 721 93 594 151 558 c 24
 296 466 447 580 583 477 c 24
 680 403 592 276 658 174 c 24
 699 111 824 18 832 93 c 24
 855 305 858 475 706 624 c 28
EndSplineSet
EndChar

StartChar: O
Encoding: 79 79 29
Width: 1000
VWidth: 0
Flags: H
LayerCount: 3
Fore
SplineSet
488 594 m 27
 381 594 257 554 257 447 c 27
 257 315 392 237 524 237 c 27
 614 237 686 312 686 402 c 27
 686 510 596 594 488 594 c 27
517 741 m 24
 724 725 855 555 877 348 c 24
 894 195 743 63 589 75 c 24
 347 94 93 170 67 411 c 24
 44 628 300 758 517 741 c 24
EndSplineSet
EndChar

StartChar: o
Encoding: 111 111 30
Width: 1000
VWidth: 0
Flags: HW
LayerCount: 3
Fore
SplineSet
488 594 m 27
 381 594 257 554 257 447 c 27
 257 315 392 237 524 237 c 27
 614 237 686 312 686 402 c 27
 686 510 596 594 488 594 c 27
517 741 m 24
 724 725 855 555 877 348 c 24
 894 195 743 63 589 75 c 24
 347 94 93 170 67 411 c 24
 44 628 300 758 517 741 c 24
EndSplineSet
EndChar

StartChar: P
Encoding: 80 80 31
Width: 1000
VWidth: 0
Flags: H
LayerCount: 3
Fore
SplineSet
244 726 m 0
 224.556811036 726 202.969741559 726.238208946 181.990866981 725.036532074 c 1
 172 765 l 1
 112 774 l 1
 130.235083584 717.471240889 l 1
 100.390723172 709.09822495 79 692.570633665 79 660 c 0
 79 648.606294759 79.0948257992 636.596221822 79.525381234 624.429688515 c 1
 28 630 l 1
 25 588 l 1
 82.9661265411 580.568445315 l 1
 89.7848757543 529.62445912 108.123877185 486 157 486 c 0
 186.165701287 486 216.976003363 490.048248098 244.571318031 498.95467566 c 1
 236.501626457 438.069048796 268.036465061 370.353782328 316 321 c 0
 368.844401399 265.789431375 449.682539523 227.375104785 514.355839442 248.443642664 c 1
 535.769546239 204.565458377 588.159097115 162.142639866 634 135 c 0
 702 95 783 92 835 150 c 0
 874 194 820 255 769 285 c 0
 711.518316014 318.530982325 647.949065147 362.832275287 592.712175793 364.06947954 c 1
 589.711048172 419.733370043 551.994940355 479.064106394 508 525 c 0
 461.036038064 574.200341076 391.843668762 613.397898838 333.977916014 602.823756044 c 1
 333.052766675 662.051523477 303.060128003 726.000000009 244 726 c 0
EndSplineSet
EndChar

StartChar: p
Encoding: 112 112 32
Width: 1000
VWidth: 0
Flags: HW
LayerCount: 3
Fore
SplineSet
244 726 m 0
 224.556811036 726 202.969741559 726.238208946 181.990866981 725.036532074 c 1
 172 765 l 1
 112 774 l 1
 130.235083584 717.471240889 l 1
 100.390723172 709.09822495 79 692.570633665 79 660 c 0
 79 648.606294759 79.0948257992 636.596221822 79.525381234 624.429688515 c 1
 28 630 l 1
 25 588 l 1
 82.9661265411 580.568445315 l 1
 89.7848757543 529.62445912 108.123877185 486 157 486 c 0
 186.165701287 486 216.976003363 490.048248098 244.571318031 498.95467566 c 1
 236.501626457 438.069048796 268.036465061 370.353782328 316 321 c 0
 368.844401399 265.789431375 449.682539523 227.375104785 514.355839442 248.443642664 c 1
 535.769546239 204.565458377 588.159097115 162.142639866 634 135 c 0
 702 95 783 92 835 150 c 0
 874 194 820 255 769 285 c 0
 711.518316014 318.530982325 647.949065147 362.832275287 592.712175793 364.06947954 c 1
 589.711048172 419.733370043 551.994940355 479.064106394 508 525 c 0
 461.036038064 574.200341076 391.843668762 613.397898838 333.977916014 602.823756044 c 1
 333.052766675 662.051523477 303.060128003 726.000000009 244 726 c 0
EndSplineSet
EndChar

StartChar: Q
Encoding: 81 81 33
Width: 1000
VWidth: 0
Flags: H
LayerCount: 3
Fore
SplineSet
542.602404667 564.479053175 m 1
 520.067217356 580.868150564 493.333687915 591.885355099 463.420403878 595.799067974 c 1
 433 666 l 1
 418.049599534 595.519540661 l 1
 393.416659971 591.62710378 370.236143581 581.65562269 350.484656832 567.28887327 c 1
 199 669 l 1
 166 636 l 1
 313.331446815 529.238082018 l 1
 302.531385878 513.492968637 294.782825345 495.77150628 291.063408798 476.906502444 c 1
 313 483 l 1
 316 432 l 1
 289.345236756 437.042793046 l 1
 291.359890534 417.698306049 297.935705949 401.295772399 307.907250597 387.459246159 c 1
 166 258 l 1
 229 216 l 1
 346.951567902 353.208966743 l 1
 361.546772563 344.727096246 378.089907128 338.159563719 395.627981369 333.19895296 c 1
 412 249 l 1
 441.242518965 323.933954849 l 1
 451.488615029 322.560986576 461.794759318 321.600308275 472 321 c 0
 492.522873246 319.810268218 514.284275492 321.982258006 534.6003002 327.437030937 c 1
 604 219 l 1
 661 267 l 1
 584.980197241 350.816705607 l 1
 606.252812137 366.643403085 620.02261511 388.616405746 619.17874665 416.526570663 c 1
 700 435 l 1
 614.800398311 449.605646004 l 1
 610.350865024 470.539491897 602.907377365 490.16307235 592.842695345 507.842695345 c 1
 715 630 l 1
 643 684 l 1
 542.602404667 564.479053175 l 1
289.345236756 437.042793046 m 2
 205 453 l 1
 291.063408798 476.906502444 l 1
 288.776170123 465.305552178 288.012584625 453.272162512 289 441 c 0
 289.094062195 439.66745223 289.209260555 438.348421775 289.345236756 437.042793046 c 2
EndSplineSet
EndChar

StartChar: q
Encoding: 113 113 34
Width: 1000
VWidth: 0
Flags: HW
LayerCount: 3
Fore
SplineSet
542.602404667 564.479053175 m 1
 520.067217356 580.868150564 493.333687915 591.885355099 463.420403878 595.799067974 c 1
 433 666 l 1
 418.049599534 595.519540661 l 1
 393.416659971 591.62710378 370.236143581 581.65562269 350.484656832 567.28887327 c 1
 199 669 l 1
 166 636 l 1
 313.331446815 529.238082018 l 1
 302.531385878 513.492968637 294.782825345 495.77150628 291.063408798 476.906502444 c 1
 313 483 l 1
 316 432 l 1
 289.345236756 437.042793046 l 1
 291.359890534 417.698306049 297.935705949 401.295772399 307.907250597 387.459246159 c 1
 166 258 l 1
 229 216 l 1
 346.951567902 353.208966743 l 1
 361.546772563 344.727096246 378.089907128 338.159563719 395.627981369 333.19895296 c 1
 412 249 l 1
 441.242518965 323.933954849 l 1
 451.488615029 322.560986576 461.794759318 321.600308275 472 321 c 0
 492.522873246 319.810268218 514.284275492 321.982258006 534.6003002 327.437030937 c 1
 604 219 l 1
 661 267 l 1
 584.980197241 350.816705607 l 1
 606.252812137 366.643403085 620.02261511 388.616405746 619.17874665 416.526570663 c 1
 700 435 l 1
 614.800398311 449.605646004 l 1
 610.350865024 470.539491897 602.907377365 490.16307235 592.842695345 507.842695345 c 1
 715 630 l 1
 643 684 l 1
 542.602404667 564.479053175 l 1
289.345236756 437.042793046 m 2
 205 453 l 1
 291.063408798 476.906502444 l 1
 288.776170123 465.305552178 288.012584625 453.272162512 289 441 c 0
 289.094062195 439.66745223 289.209260555 438.348421775 289.345236756 437.042793046 c 2
EndSplineSet
EndChar

StartChar: R
Encoding: 82 82 35
Width: 1000
VWidth: 0
Flags: H
LayerCount: 3
Fore
SplineSet
610 747 m 31
 397 747 115 729 115 516 c 27
 115 394 29 204 151 204 c 27
 288 204 293 417 430 417 c 27
 554 417 342 102 466 102 c 27
 647 102 862 161 862 342 c 27
 862 528 796 747 610 747 c 31
EndSplineSet
EndChar

StartChar: r
Encoding: 114 114 36
Width: 1000
VWidth: 0
Flags: HW
LayerCount: 3
Fore
SplineSet
610 747 m 31
 397 747 115 729 115 516 c 27
 115 394 29 204 151 204 c 27
 288 204 293 417 430 417 c 27
 554 417 342 102 466 102 c 27
 647 102 862 161 862 342 c 27
 862 528 796 747 610 747 c 31
EndSplineSet
EndChar

StartChar: S
Encoding: 83 83 37
Width: 1000
VWidth: 0
Flags: H
LayerCount: 3
Fore
SplineSet
142 744 m 30
 49 675 l 26
 355 372 l 26
 79 123 l 26
 157 42 l 26
 481 321 l 26
 736 69 l 26
 850 246 l 26
 586 408 l 26
 835 681 l 26
 649 738 l 26
 502 498 l 26
 142 744 l 30
EndSplineSet
EndChar

StartChar: s
Encoding: 115 115 38
Width: 1000
VWidth: 0
Flags: HW
LayerCount: 3
Fore
SplineSet
142 744 m 30
 49 675 l 26
 355 372 l 26
 79 123 l 26
 157 42 l 26
 481 321 l 26
 736 69 l 26
 850 246 l 26
 586 408 l 26
 835 681 l 26
 649 738 l 26
 502 498 l 26
 142 744 l 30
EndSplineSet
EndChar

StartChar: T
Encoding: 84 84 39
Width: 1006
VWidth: 0
Flags: H
LayerCount: 3
Fore
SplineSet
78 72 m 29
 87 237 l 25
 402 255 l 25
 414 465 l 25
 795 516 l 25
 816 747 l 25
 963 762 l 25
 957 42 l 25
 78 72 l 29
EndSplineSet
EndChar

StartChar: t
Encoding: 116 116 40
Width: 1006
VWidth: 0
Flags: HW
LayerCount: 3
Fore
SplineSet
78 72 m 29
 87 237 l 25
 402 255 l 25
 414 465 l 25
 795 516 l 25
 816 747 l 25
 963 762 l 25
 957 42 l 25
 78 72 l 29
EndSplineSet
EndChar

StartChar: U
Encoding: 85 85 41
Width: 1000
VWidth: 0
Flags: H
LayerCount: 3
Fore
SplineSet
115 759 m 29
 106 90 l 25
 424 87 l 25
 418 330 l 25
 661 348 l 25
 667 78 l 25
 901 90 l 25
 889 738 l 25
 115 759 l 29
EndSplineSet
EndChar

StartChar: V
Encoding: 86 86 42
Width: 1000
VWidth: 0
Flags: H
LayerCount: 3
Fore
SplineSet
448 696 m 29
 241 699 l 25
 241 591 l 25
 442 591 l 25
 460 45 l 25
 580 51 l 25
 574 579 l 25
 715 582 l 25
 721 711 l 25
 592 699 l 25
 589 732 l 25
 700 735 l 25
 694 768 l 25
 259 780 l 25
 256 744 l 25
 445 750 l 25
 448 696 l 29
EndSplineSet
EndChar

StartChar: u
Encoding: 117 117 43
Width: 1000
VWidth: 0
Flags: HW
LayerCount: 3
Fore
SplineSet
115 759 m 29
 106 90 l 25
 424 87 l 25
 418 330 l 25
 661 348 l 25
 667 78 l 25
 901 90 l 25
 889 738 l 25
 115 759 l 29
EndSplineSet
EndChar

StartChar: v
Encoding: 118 118 44
Width: 1000
VWidth: 0
Flags: HW
LayerCount: 3
Fore
SplineSet
448 696 m 29
 241 699 l 25
 241 591 l 25
 442 591 l 25
 460 45 l 25
 580 51 l 25
 574 579 l 25
 715 582 l 25
 721 711 l 25
 592 699 l 25
 589 732 l 25
 700 735 l 25
 694 768 l 25
 259 780 l 25
 256 744 l 25
 445 750 l 25
 448 696 l 29
EndSplineSet
EndChar

StartChar: W
Encoding: 87 87 45
Width: 1000
VWidth: 0
Flags: H
LayerCount: 3
Fore
SplineSet
244 678 m 0
 302 629 339 601 412 582 c 24
 489 562 541 550 616 579 c 24
 683 605 700 656 745 711 c 24
 752 720 757 749 748 741 c 24
 711 707 705 673 667 639 c 24
 645 620 624.183964558 622.091982279 598 609 c 4
 538 579 468.091414256 604.310635391 421 618 c 0
 335 643 380.599609375 624.662109375 295 651 c 4
 282 655 233.722969979 686.682318466 244 678 c 0
934 744 m 25
 751 750 l 25
 742 708 l 25
 823 696 l 25
 808 81 l 25
 913 54 l 25
 877 696 l 25
 937 699 l 25
 934 744 l 25
241 732 m 25
 58 738 l 25
 49 696 l 25
 130 684 l 25
 115 69 l 25
 220 42 l 25
 184 684 l 25
 244 687 l 25
 241 732 l 25
EndSplineSet
EndChar

StartChar: w
Encoding: 119 119 46
Width: 1000
VWidth: 0
Flags: HW
LayerCount: 3
Fore
SplineSet
244 678 m 0
 302 629 339 601 412 582 c 24
 489 562 541 550 616 579 c 24
 683 605 700 656 745 711 c 24
 752 720 757 749 748 741 c 24
 711 707 705 673 667 639 c 24
 645 620 624.183964558 622.091982279 598 609 c 4
 538 579 468.091414256 604.310635391 421 618 c 0
 335 643 380.599609375 624.662109375 295 651 c 4
 282 655 233.722969979 686.682318466 244 678 c 0
934 744 m 25
 751 750 l 25
 742 708 l 25
 823 696 l 25
 808 81 l 25
 913 54 l 25
 877 696 l 25
 937 699 l 25
 934 744 l 25
241 732 m 25
 58 738 l 25
 49 696 l 25
 130 684 l 25
 115 69 l 25
 220 42 l 25
 184 684 l 25
 244 687 l 25
 241 732 l 25
EndSplineSet
EndChar

StartChar: X
Encoding: 88 88 47
Width: 1000
VWidth: 0
Flags: HW
LayerCount: 3
Fore
SplineSet
620.697265625 497.064453125 m 30
 563 451 l 30
 628.155273438 485.444335938 l 30
 620.697265625 497.064453125 l 30
598.325195312 375.0546875 m 23
 598.325195312 404.916015625 586.462890625 430.143554688 567.709960938 449.055664062 c 6
 543.721679688 473.248046875 508.459960938 487.104492188 472.333007812 487.104492188 c 15
 418.559570312 487.104492188 384.020507812 431.909179688 384.020507812 375.0546875 c 31
 384.020507812 328.57421875 418.952148438 290.39453125 462.912109375 290.39453125 c 31
 524.142578125 290.39453125 598.325195312 310.314453125 598.325195312 375.0546875 c 23
959.697265625 310.064453125 m 26
 902 264 l 26
 967.155273438 298.444335938 l 26
 959.697265625 310.064453125 l 26
937.325195312 188.0546875 m 19
 937.325195312 217.916015625 925.462890625 243.143554688 906.709960938 262.055664062 c 2
 882.721679688 286.248046875 847.459960938 300.104492188 811.333007812 300.104492188 c 11
 757.559570312 300.104492188 723.020507812 244.909179688 723.020507812 188.0546875 c 27
 723.020507812 141.57421875 757.952148438 103.39453125 801.912109375 103.39453125 c 27
 863.142578125 103.39453125 937.325195312 123.314453125 937.325195312 188.0546875 c 19
361.697265625 282.064453125 m 26
 304 236 l 26
 369.155273438 270.444335938 l 26
 361.697265625 282.064453125 l 26
339.325195312 160.0546875 m 19
 339.325195312 189.916015625 327.462890625 215.143554688 308.709960938 234.055664062 c 2
 284.721679688 258.248046875 249.459960938 272.104492188 213.333007812 272.104492188 c 11
 159.559570312 272.104492188 125.020507812 216.909179688 125.020507812 160.0546875 c 27
 125.020507812 113.57421875 159.952148438 75.39453125 203.912109375 75.39453125 c 27
 265.142578125 75.39453125 339.325195312 95.314453125 339.325195312 160.0546875 c 19
965.697265625 626.064453125 m 26
 908 580 l 26
 973.155273438 614.444335938 l 26
 965.697265625 626.064453125 l 26
943.325195312 504.0546875 m 19
 943.325195312 533.916015625 931.462890625 559.143554688 912.709960938 578.055664062 c 2
 888.721679688 602.248046875 853.459960938 616.104492188 817.333007812 616.104492188 c 11
 763.559570312 616.104492188 729.020507812 560.909179688 729.020507812 504.0546875 c 27
 729.020507812 457.57421875 763.952148438 419.39453125 807.912109375 419.39453125 c 27
 869.142578125 419.39453125 943.325195312 439.314453125 943.325195312 504.0546875 c 19
363.697265625 620.064453125 m 26
 306 574 l 26
 371.155273438 608.444335938 l 26
 363.697265625 620.064453125 l 26
341.325195312 498.0546875 m 19
 341.325195312 527.916015625 329.462890625 553.143554688 310.709960938 572.055664062 c 2
 286.721679688 596.248046875 251.459960938 610.104492188 215.333007812 610.104492188 c 11
 161.559570312 610.104492188 127.020507812 554.909179688 127.020507812 498.0546875 c 27
 127.020507812 451.57421875 161.952148438 413.39453125 205.912109375 413.39453125 c 27
 267.142578125 413.39453125 341.325195312 433.314453125 341.325195312 498.0546875 c 19
EndSplineSet
EndChar

StartChar: x
Encoding: 120 120 48
Width: 1000
VWidth: 0
Flags: HW
LayerCount: 3
Fore
SplineSet
620.697265625 497.064453125 m 30
 563 451 l 30
 628.155273438 485.444335938 l 30
 620.697265625 497.064453125 l 30
598.325195312 375.0546875 m 23
 598.325195312 404.916015625 586.462890625 430.143554688 567.709960938 449.055664062 c 6
 543.721679688 473.248046875 508.459960938 487.104492188 472.333007812 487.104492188 c 15
 418.559570312 487.104492188 384.020507812 431.909179688 384.020507812 375.0546875 c 31
 384.020507812 328.57421875 418.952148438 290.39453125 462.912109375 290.39453125 c 31
 524.142578125 290.39453125 598.325195312 310.314453125 598.325195312 375.0546875 c 23
959.697265625 310.064453125 m 26
 902 264 l 26
 967.155273438 298.444335938 l 26
 959.697265625 310.064453125 l 26
937.325195312 188.0546875 m 19
 937.325195312 217.916015625 925.462890625 243.143554688 906.709960938 262.055664062 c 2
 882.721679688 286.248046875 847.459960938 300.104492188 811.333007812 300.104492188 c 11
 757.559570312 300.104492188 723.020507812 244.909179688 723.020507812 188.0546875 c 27
 723.020507812 141.57421875 757.952148438 103.39453125 801.912109375 103.39453125 c 27
 863.142578125 103.39453125 937.325195312 123.314453125 937.325195312 188.0546875 c 19
361.697265625 282.064453125 m 26
 304 236 l 26
 369.155273438 270.444335938 l 26
 361.697265625 282.064453125 l 26
339.325195312 160.0546875 m 19
 339.325195312 189.916015625 327.462890625 215.143554688 308.709960938 234.055664062 c 2
 284.721679688 258.248046875 249.459960938 272.104492188 213.333007812 272.104492188 c 11
 159.559570312 272.104492188 125.020507812 216.909179688 125.020507812 160.0546875 c 27
 125.020507812 113.57421875 159.952148438 75.39453125 203.912109375 75.39453125 c 27
 265.142578125 75.39453125 339.325195312 95.314453125 339.325195312 160.0546875 c 19
965.697265625 626.064453125 m 26
 908 580 l 26
 973.155273438 614.444335938 l 26
 965.697265625 626.064453125 l 26
943.325195312 504.0546875 m 19
 943.325195312 533.916015625 931.462890625 559.143554688 912.709960938 578.055664062 c 2
 888.721679688 602.248046875 853.459960938 616.104492188 817.333007812 616.104492188 c 11
 763.559570312 616.104492188 729.020507812 560.909179688 729.020507812 504.0546875 c 27
 729.020507812 457.57421875 763.952148438 419.39453125 807.912109375 419.39453125 c 27
 869.142578125 419.39453125 943.325195312 439.314453125 943.325195312 504.0546875 c 19
363.697265625 620.064453125 m 26
 306 574 l 26
 371.155273438 608.444335938 l 26
 363.697265625 620.064453125 l 26
341.325195312 498.0546875 m 19
 341.325195312 527.916015625 329.462890625 553.143554688 310.709960938 572.055664062 c 2
 286.721679688 596.248046875 251.459960938 610.104492188 215.333007812 610.104492188 c 11
 161.559570312 610.104492188 127.020507812 554.909179688 127.020507812 498.0546875 c 27
 127.020507812 451.57421875 161.952148438 413.39453125 205.912109375 413.39453125 c 27
 267.142578125 413.39453125 341.325195312 433.314453125 341.325195312 498.0546875 c 19
EndSplineSet
EndChar

StartChar: Y
Encoding: 89 89 49
Width: 1000
VWidth: 0
Flags: H
LayerCount: 3
Fore
SplineSet
112 688 m 29
 91 128 l 29
 913 110 l 29
 823 674 l 29
 112 688 l 29
769 657 m 29
 820 558 l 29
 682 153 l 29
 574 213 l 29
 769 657 l 29
238 648 m 29
 424 219 l 29
 316 156 l 29
 133 594 l 29
 238 648 l 29
85 729 m 29
 844 711 l 29
 943 75 l 29
 70 102 l 29
 85 729 l 29
EndSplineSet
EndChar

StartChar: y
Encoding: 121 121 50
Width: 1000
VWidth: 0
Flags: HW
LayerCount: 3
Fore
SplineSet
112 688 m 29
 91 128 l 29
 913 110 l 29
 823 674 l 29
 112 688 l 29
769 657 m 29
 820 558 l 29
 682 153 l 29
 574 213 l 29
 769 657 l 29
238 648 m 29
 424 219 l 29
 316 156 l 29
 133 594 l 29
 238 648 l 29
85 729 m 29
 844 711 l 29
 943 75 l 29
 70 102 l 29
 85 729 l 29
EndSplineSet
EndChar

StartChar: Z
Encoding: 90 90 51
Width: 1000
VWidth: 0
Flags: H
LayerCount: 3
Fore
SplineSet
658 594 m 29
 697 195 l 25
 877 222 l 25
 817 663 l 25
 658 594 l 29
433 561 m 25
 415 174 l 25
 631 174 l 25
 613 585 l 25
 433 561 l 25
169 627 m 25
 139 180 l 25
 358 159 l 25
 385 567 l 25
 169 627 l 25
61 744 m 24
 168 767 200 631 307 609 c 24
 449 579 538 582 679 615 c 24
 776 638 858 838 898 747 c 24
 939 654 784 631 691 588 c 24
 607 549 550 543 457 543 c 24
 358 543 296 543 208 588 c 24
 133 626 -21 727 61 744 c 24
EndSplineSet
EndChar

StartChar: z
Encoding: 122 122 52
Width: 1000
VWidth: 0
Flags: HW
LayerCount: 3
Fore
SplineSet
658 594 m 29
 697 195 l 25
 877 222 l 25
 817 663 l 25
 658 594 l 29
433 561 m 25
 415 174 l 25
 631 174 l 25
 613 585 l 25
 433 561 l 25
169 627 m 25
 139 180 l 25
 358 159 l 25
 385 567 l 25
 169 627 l 25
61 744 m 24
 168 767 200 631 307 609 c 24
 449 579 538 582 679 615 c 24
 776 638 858 838 898 747 c 24
 939 654 784 631 691 588 c 24
 607 549 550 543 457 543 c 24
 358 543 296 543 208 588 c 24
 133 626 -21 727 61 744 c 24
EndSplineSet
EndChar

StartChar: one
Encoding: 49 49 53
Width: 1000
VWidth: 0
Flags: H
LayerCount: 3
Fore
SplineSet
853 684 m 31
 660 684 551 681 358 681 c 27
 260 681 205 581 205 483 c 27
 205 391 350 477 442 477 c 27
 484 477 469 561 511 561 c 27
 576 561 602 501 667 501 c 27
 709 501 703 576 745 576 c 27
 820 576 784 462 784 387 c 27
 784 252 481 84 481 219 c 27
 481 442 520 566 520 789 c 27
 520 841 388 832 388 780 c 27
 388 519 391 372 391 111 c 27
 391 -77 683 165 871 165 c 27
 1019 165 916 395 916 543 c 27
 916 599 858 630 802 630 c 27
 734 630 696 612 628 612 c 27
 569 612 537 621 478 621 c 27
 432 621 446 531 400 531 c 27
 346 531 268 432 268 486 c 27
 268 547 291 618 352 618 c 27
 546 618 653 654 847 654 c 27
 859 654 865 684 853 684 c 31
EndSplineSet
EndChar

StartChar: two
Encoding: 50 50 54
Width: 1000
VWidth: 0
Flags: H
LayerCount: 3
Fore
SplineSet
787 315 m 31
 575 315 268 368 268 156 c 27
 268 -3 511 84 670 84 c 27
 764 84 460 107 460 201 c 27
 460 336 922 315 787 315 c 31
469 726 m 27
 469 613 196 743 196 630 c 27
 196 517 140 345 253 345 c 27
 502 345 619 516 868 516 c 27
 1033 516 445 321 445 486 c 27
 445 671 1059 690 874 690 c 27
 655 690 544 567 325 567 c 27
 276 567 349 493 349 444 c 27
 349 410 262 395 262 429 c 27
 262 510 223 633 304 633 c 27
 426 633 482 720 604 720 c 27
 658 720 742 675 742 729 c 27
 742 774 685 783 640 783 c 27
 443 783 333 756 136 756 c 27
 6 756 469 856 469 726 c 27
EndSplineSet
EndChar

StartChar: three
Encoding: 51 51 55
Width: 1000
VWidth: 0
Flags: H
LayerCount: 3
Fore
SplineSet
733 213 m 1055
736 216 m 27
 736 159 712 93 655 93 c 27
 574 93 451 54 451 135 c 27
 451 232 549 288 646 288 c 27
 737 288 832 238 832 147 c 27
 832 40 559 284 559 177 c 27
 559 73 671 21 775 21 c 27
 875 21 922 131 922 231 c 27
 922 308 948 423 871 423 c 27
 751 423 634 345 634 225 c 27
 634 186 598 126 637 126 c 27
 689 126 736 268 736 216 c 27
769 684 m 27
 677 684 544 707 544 615 c 27
 544 528 595 441 682 441 c 27
 763 441 853 480 853 561 c 27
 853 616 712 521 712 576 c 27
 712 624 817 684 769 684 c 27
250 744 m 27
 157 744 82 666 82 573 c 27
 82 463 316 524 316 414 c 27
 316 304 130 311 130 201 c 27
 130 75 322 258 448 258 c 27
 526 258 454 381 454 459 c 27
 454 550 244 467 244 558 c 27
 244 616 334 620 334 678 c 27
 334 720 292 744 250 744 c 27
EndSplineSet
EndChar

StartChar: four
Encoding: 52 52 56
Width: 1000
VWidth: 0
Flags: H
LayerCount: 3
Fore
SplineSet
775 243 m 31
 680 243 535 302 535 207 c 27
 535 133 602 81 676 81 c 27
 756 81 853 103 853 183 c 27
 853 260 735 147 658 147 c 27
 599 147 834 243 775 243 c 31
130 294 m 27
 60 294 25 220 25 150 c 27
 25 85 119 99 184 99 c 27
 258 99 334 290 334 216 c 27
 334 134 241 109 241 27 c 27
 241 -50 397 73 397 150 c 27
 397 201 409 276 358 276 c 27
 261 276 233 162 136 162 c 27
 79 162 199 351 199 294 c 27
 199 194 84 39 184 39 c 27
 295 39 250 204 250 315 c 27
 250 363 178 294 130 294 c 27
772 702 m 27
 666 702 505 760 505 654 c 27
 505 592 539 528 601 528 c 27
 668 528 769 625 769 558 c 27
 769 471 712 387 625 387 c 27
 566 387 422 339 481 339 c 27
 590 339 651 360 760 360 c 27
 819 360 823 439 823 498 c 27
 823 532 854 585 820 585 c 27
 747 585 634 539 634 612 c 27
 634 690 820 765 820 687 c 27
 820 555 616 549 616 417 c 27
 616 287 856 518 856 648 c 27
 856 687 811 702 772 702 c 27
196 699 m 27
 132 699 67 661 67 597 c 27
 67 507 298 684 298 594 c 27
 298 484 55 563 55 453 c 27
 55 388 155 441 220 441 c 27
 283 441 325 501 325 564 c 27
 325 593 336 636 307 636 c 27
 227 636 183 624 103 624 c 27
 54 624 171 669 220 669 c 27
 235 669 211 699 196 699 c 27
EndSplineSet
EndChar

StartChar: five
Encoding: 53 53 57
Width: 1000
VWidth: 0
Flags: H
LayerCount: 3
Fore
SplineSet
356 720 m 27
 368 720 374 729 386 729 c 1055
358 723 m 27
 358 768 295 774 295 819 c 27
 295 865 412 862 412 816 c 27
 412 779 379 763 379 726 c 27
 379 718 358 715 358 723 c 27
370 723 m 27
 325 723 331 660 331 615 c 27
 331 588 397 612 397 639 c 27
 397 673 404 723 370 723 c 27
82 96 m 27
 82 183 217 72 304 72 c 27
 398 72 288 300 382 300 c 27
 484 300 442 147 442 45 c 27
 442 -25 335 15 265 15 c 27
 187 15 82 18 82 96 c 27
814 300 m 27
 814 359 691 269 691 210 c 27
 691 156 670 75 724 75 c 27
 784 75 808 129 868 129 c 27
 910 129 946 162 946 204 c 27
 946 246 889 162 847 162 c 27
 785 162 700 37 700 99 c 27
 700 189 814 210 814 300 c 27
856 744 m 27
 856 836 622 806 622 714 c 27
 622 641 624 543 697 543 c 27
 769 543 841 588 841 660 c 27
 841 729 751 585 682 585 c 27
 659 585 667 619 667 642 c 27
 667 675 676 759 676 726 c 27
 676 622 611 462 715 462 c 27
 803 462 630 687 718 687 c 27
 829 687 667 408 778 408 c 27
 894 408 671 705 787 705 c 27
 907 705 769 414 889 414 c 27
 1018 414 856 615 856 744 c 27
496 720 m 27
 496 542 451 445 451 267 c 27
 451 212 496 77 496 132 c 27
 496 240 547 297 547 405 c 27
 547 498 574 549 574 642 c 27
 574 679 514 680 514 717 c 27
 514 724 496 727 496 720 c 27
184 741 m 27
 184 585 97 507 97 351 c 27
 97 271 116 171 196 171 c 27
 303 171 211 337 211 444 c 27
 211 518 232 559 232 633 c 27
 232 672 187 684 187 723 c 27
 187 730 184 748 184 741 c 27
EndSplineSet
EndChar

StartChar: six
Encoding: 54 54 58
Width: 1000
VWidth: 0
Flags: H
LayerCount: 3
Fore
SplineSet
40 756 m 27
 40 787 115 811 115 780 c 27
 115 724 87 663 31 663 c 27
 -5 663 40 720 40 756 c 27
736 330 m 27
 736 256 763 215 763 141 c 27
 763 79 848 81 910 81 c 27
 984 81 973 187 973 261 c 27
 973 327 934 129 868 129 c 27
 790 129 769 225 769 303 c 27
 769 320 736 347 736 330 c 27
931 675 m 27
 931 769 877 535 877 441 c 27
 877 381 928 237 928 297 c 27
 928 444 931 528 931 675 c 27
403 441 m 27
 403 496 322 379 322 324 c 27
 322 277 293 207 340 207 c 27
 426 207 553 175 553 261 c 27
 553 316 462 396 517 396 c 27
 595 396 664 339 664 261 c 27
 664 142 540 78 421 78 c 27
 356 78 292 118 292 183 c 27
 292 409 475 506 475 732 c 27
 475 914 249 507 67 507 c 27
 -106 507 445 911 445 738 c 27
 445 493 232 392 232 147 c 27
 232 14 403 308 403 441 c 27
79 456 m 24
 -2 431 102 322 94 237 c 24
 89 188 16 160 46 120 c 24
 85 68 146 68 208 84 c 24
 249 95 119 97 115 138 c 24
 109 196 197 210 190 267 c 24
 180 352 161 481 79 456 c 24
685 708 m 24
 625 713 575 736 532 693 c 24
 484 645 439 555 499 522 c 24
 585 475 672 511 745 576 c 24
 793 619 624 547 580 594 c 24
 551 625 614 652 643 684 c 24
 656 698 704 706 685 708 c 24
EndSplineSet
EndChar

StartChar: seven
Encoding: 55 55 59
Width: 1000
VWidth: 0
Flags: H
LayerCount: 3
Fore
SplineSet
466 81 m 24
 436 81 391 66 403 39 c 24
 420 1 460 -0 502 0 c 24
 570 1 698 -20 670 42 c 24
 637 116 547 82 466 81 c 24
514 264 m 24
 485 265 470 219 487 195 c 24
 505 170 554 164 565 192 c 24
 578 224 548 263 514 264 c 24
430 570 m 24
 386 570 358 511 376 471 c 24
 392 436 456 437 475 471 c 24
 495 508 472 570 430 570 c 24
202 261 m 4
 113.15552922 302.230157704 148.296987457 -39.0330273416 0 339 c 4
 -45.794788288 455.738328606 178 233 304 234 c 24
 372 234 484 396 442 342 c 24
 352 224 325 82 178 69 c 24
 81 61 121 230 163 318 c 24
 190 376 304 428 319 366 c 24
 344 265 172.26949111 26.8909594205 211 123 c 0
 265 257 332.85285538 200.274962009 202 261 c 4
907 360 m 24
 895 306 807 317 805 261 c 24
 803 215 876 230 901 192 c 24
 940 133 893 24 964 21 c 24
 1029 18 991 128 967 189 c 24
 948 237 867 221 865 273 c 24
 863 327 962 318 961 372 c 24
 959 435 921 512 859 498 c 24
 803 486 920 416 907 360 c 24
898 765 m 24
 847 789 859 674 877 621 c 24
 889 587 956 546 961 582 c 24
 972 657 966 733 898 765 c 24
622 741 m 24
 563 682 506 625 532 546 c 24
 557 471 688 533 715 459 c 24
 750 362 628 300 658 201 c 24
 687 105 761 -26 847 27 c 24
 930 78 714 129 697 225 c 24
 680 323 796 375 769 471 c 24
 745 555 630 527 589 603 c 24
 563 652 661 780 622 741 c 24
262 780 m 24
 182 737 100 732 73 645 c 24
 50 573 90 466 166 474 c 24
 264 485 334 574 322 672 c 24
 312 752 236 539 157 549 c 24
 101 556 140 642 163 693 c 24
 184 740 307 804 262 780 c 24
EndSplineSet
EndChar

StartChar: eight
Encoding: 56 56 60
Width: 1000
VWidth: 0
Flags: H
LayerCount: 3
Fore
SplineSet
424 393 m 28
 381 407 357 355 343 312 c 24
 332 279 337 239 370 228 c 24
 398 219 361 275 370 303 c 24
 383 342 463 380 424 393 c 28
853 714 m 24
 826 726 796 682 805 654 c 24
 815 623 863 595 883 621 c 24
 907 651 888 699 853 714 c 24
811 468 m 24
 786 510 763 402 757 354 c 24
 748 283 725 225 772 171 c 24
 802 136 838 216 883 210 c 24
 911 206 924 122 925 150 c 24
 929 224 944 286 889 336 c 24
 856 366 849 202 826 240 c 24
 781 317 857 392 811 468 c 24
208 261 m 24
 206 189 184 128 235 78 c 24
 273 41 315 100 367 105 c 24
 423 110 456 112 511 102 c 24
 585 89 768 75 697 48 c 24
 581 3 502 70 379 51 c 24
 337 45 439 19 481 15 c 24
 553 8 595 11 667 24 c 24
 706 31 788 38 760 66 c 24
 696 129 633 133 544 144 c 24
 448 156 387 86 298 123 c 24
 241 147 274 219 241 270 c 24
 234 281 208 274 208 261 c 24
544 357 m 25
 481 297 l 25
 553 261 l 25
 601 285 l 25
 544 357 l 25
385 711 m 24
 344 730 283 714 277 669 c 24
 271 628 335 609 373 624 c 24
 405 636 416 696 385 711 c 24
580 732 m 24
 498 696 468 578 526 510 c 24
 580 446 662 509 739 543 c 24
 798 569 615 482 574 531 c 24
 524 591 652 763 580 732 c 24
244 774 m 24
 157 793 65 712 73 624 c 24
 83 510 283 528 277 414 c 24
 271 303 -32 168 52 240 c 24
 161 333 302 330 340 468 c 24
 364 555 181 519 154 606 c 24
 132 677 317 758 244 774 c 24
EndSplineSet
EndChar

StartChar: nine
Encoding: 57 57 61
Width: 1000
VWidth: 0
Flags: H
LayerCount: 3
Fore
SplineSet
283 744 m 27
 190 744 100 522 193 522 c 27
 301 522 292 705 400 705 c 27
 464 705 623 744 559 744 c 27
 451 744 391 744 283 744 c 27
715 750 m 27
 655 750 652 669 652 609 c 27
 652 532 755 525 832 525 c 27
 901 525 901 618 901 687 c 27
 901 764 792 750 715 750 c 27
916 102 m 27
 839 102 721 143 721 66 c 27
 721 -13 911 -102 832 -102 c 27
 540 -102 374 -102 82 -102 c 27
 14 -102 170 -177 238 -177 c 27
 414 -177 512 -150 688 -150 c 27
 783 -150 931 -236 931 -141 c 27
 931 -44 781 -40 781 57 c 27
 781 117 913 36 913 -24 c 27
 913 -109 618 -78 703 -78 c 27
 801 -78 851 -24 949 -24 c 27
 1000 -24 967 102 916 102 c 27
91 135 m 27
 91 69 157 30 223 30 c 27
 324 30 350 153 451 153 c 27
 506 153 510 234 565 234 c 27
 647 234 681 306 763 306 c 27
 807 306 827 339 871 339 c 27
 932 339 831 183 892 183 c 27
 958 183 931 282 931 348 c 27
 931 396 859 372 811 372 c 27
 737 372 705 312 631 312 c 27
 580 312 562 261 511 261 c 27
 460 261 460 180 409 180 c 27
 355 180 334 132 280 132 c 27
 248 132 267 63 235 63 c 27
 175 63 214 195 154 195 c 27
 120 195 91 169 91 135 c 27
712 183 m 24
 715 264 579 169 511 126 c 24
 487 111 481 46 508 54 c 24
 599 80 708 89 712 183 c 24
310 333 m 24
 288 352 254 314 253 285 c 24
 252 257 285 219 307 237 c 24
 336 261 338 308 310 333 c 24
76 498 m 24
 40 523 36 426 55 387 c 24
 79 339 159 257 169 309 c 24
 184 390 144 452 76 498 c 24
526 675 m 25
 322 531 l 25
 400 459 l 25
 466 510 l 25
 583 348 l 25
 526 675 l 25
28 780 m 1
 61 630 l 1
 127 705 l 5
 28 780 l 1
EndSplineSet
EndChar
